<?xml version="1.0" encoding="iso-8859-1"?>
<!-- Uploaded to: SVG Repo, www.svgrepo.com, Generator: SVG Repo Mixer Tools -->
<svg fill="#000000" height="800px" width="800px" version="1.1" id="Layer_1" xmlns="http://www.w3.org/2000/svg" xmlns:xlink="http://www.w3.org/1999/xlink" 
	 viewBox="0 0 512 512" xml:space="preserve">
<g>
	<g>
		<path d="M503.467,189.871h-51.2c-4.719,0-8.533,3.814-8.533,8.533v17.067H339.098c-13.662-19.004-33.758-33.195-57.498-39.287
			v-46.046c0-14.114-11.486-25.6-25.6-25.6s-25.6,11.486-25.6,25.6v46.046c-23.74,6.093-43.836,20.284-57.498,39.287H68.267v-17.067
			c0-4.719-3.814-8.533-8.533-8.533h-51.2c-4.719,0-8.533,3.814-8.533,8.533v153.6c0,4.719,3.814,8.533,8.533,8.533h51.2
			c4.719,0,8.533-3.814,8.533-8.533v-17.067H151.1l-32.555,27.324c-10.812,9.071-12.228,25.242-3.157,36.062
			c4.395,5.239,10.573,8.448,17.382,9.037c0.759,0.068,1.51,0.102,2.27,0.102c5.999,0,11.759-2.082,16.41-5.99l48.529-40.721
			c16.725,11.017,35.934,16.853,56.021,16.853c20.471,0,39.996-6.033,56.9-17.417l49.212,41.284
			c4.642,3.908,10.402,5.99,16.401,5.99c0.759,0,1.519-0.034,2.278-0.102c6.81-0.589,12.988-3.797,17.382-9.037
			c4.395-5.248,6.485-11.878,5.888-18.688c-0.597-6.818-3.814-12.979-9.054-17.374l-32.555-27.324h81.28v17.067
			c0,4.719,3.814,8.533,8.533,8.533h51.2c4.719,0,8.533-3.814,8.533-8.533v-153.6C512,193.685,508.186,189.871,503.467,189.871z
			 M51.2,224.004v102.4v17.067H17.067V206.938H51.2V224.004z M178.91,311.599c-0.017-0.026-0.034-0.051-0.043-0.077
			c-5.385-11.366-8.201-23.74-8.201-36.318c0-12.774,2.884-24.951,7.996-35.934c0.085-0.145,0.154-0.282,0.239-0.427
			c1.775-3.755,3.61-7.057,5.598-10.129c10.607-16.29,26.65-28.851,45.901-34.867v47.437c-10.3,7.799-17.067,20.036-17.067,33.92
			c0,2.364,0.324,4.659,0.7,6.921L178.91,311.599z M213.709,349.239l30.592-25.677l7.313-6.135c1.459,0.154,2.884,0.444,4.386,0.444
			c1.971,0,3.866-0.324,5.769-0.58l37.453,31.42C273.374,364.045,239.778,364.275,213.709,349.239z M333.534,310.669l-35.439-29.739
			c0.247-1.894,0.572-3.772,0.572-5.726c0-13.884-6.767-26.121-17.067-33.92v-47.437c19.251,6.016,35.294,18.577,45.901,34.867
			c1.937,2.987,3.738,6.246,5.837,10.564c5.112,10.982,7.996,23.159,7.996,35.925C341.333,287.441,338.662,299.533,333.534,310.669z
			 M494.933,343.471H460.8v-17.067v-102.4v-17.067h34.133V343.471z"/>
	</g>
</g>
</svg>