<?xml version="1.0" encoding="iso-8859-1"?>
<!-- Uploaded to: SVG Repo, www.svgrepo.com, Generator: SVG Repo Mixer Tools -->
<svg fill="#000000" height="800px" width="800px" version="1.1" id="Layer_1" xmlns="http://www.w3.org/2000/svg" xmlns:xlink="http://www.w3.org/1999/xlink" 
	 viewBox="0 0 512 512" xml:space="preserve">
<g>
	<g>
		<path d="M494.933,426.667V290.133c0-37.547-30.72-68.267-68.267-68.267H304.64l-15.36-45.227c-0.853-3.413-4.267-5.973-7.68-5.973
			h-3.413l-23.04-46.08c-1.707-3.413-4.267-5.12-7.68-5.12v-25.6H281.6c0.853,0,1.707,0,3.413-0.853l66.56-24.747H384
			c14.507,0,25.6-11.093,25.6-25.6c0-14.507-11.093-25.6-25.6-25.6h-34.133c-0.853,0-1.707,0-3.413,0.853l-66.56,24.747h-40.96
			h-40.96l-66.56-24.747c-1.707-0.853-2.56-0.853-3.413-0.853H93.867c-6.827,0-13.653,2.56-17.92,7.68
			c-5.12,4.267-7.68,11.093-7.68,17.92c0,14.507,11.093,25.6,25.6,25.6h32.427l66.56,24.747c1.707,0.853,2.56,0.853,3.413,0.853
			H230.4v25.6c-3.413,0-5.973,1.707-7.68,5.12l-23.04,46.08h-3.413c-3.413,0-6.827,2.56-7.68,5.973l-15.36,45.227H85.333
			c-37.547,0-68.267,30.72-68.267,68.267v136.533H0v68.267h128v-68.267h-17.067V332.8c0-14.507,11.093-25.6,25.6-25.6h230.4
			c20.48,0,34.133,10.24,34.133,25.6v93.867H384v68.267h128v-68.267H494.933z M110.933,477.867H17.067v-34.133h93.867V477.867z
			 M191.147,221.867l11.093-34.133h2.56h68.267h2.56l11.093,34.133H191.147z M494.933,477.867h-93.867v-34.133h93.867V477.867z"/>
	</g>
</g>
</svg>